PathFileType	4	(X/Y/Z)	C:\Users\WrightLab\Desktop\Jo\P4V136.trc
DataRate	CameraRate	NumFrames	NumMarkers	Units	OrigDataRate	OrigDataStartFrame	OrigNumFrames
100.00	100.00	       8	19	mm	100.00	354	       565
Frame#	Time	Headset_Front			Headset_Back			Headset_Left			Headset_Right			Left_Shoulder			Right_Shoulder			Sternum			C7			Left Elbow			Right Elbow			Left Wrist			Right Wrist			Left ASIS			Right ASIS			S2			Left Knee			Right Knee			Left Ankle			Right Ankle			
		X1	Y1	Z1	X2	Y2	Z2	X3	Y3	Z3	X4	Y4	Z4	X5	Y5	Z5	X6	Y6	Z6	X7	Y7	Z7	X8	Y8	Z8	X9	Y9	Z9	X10	Y10	Z10	X11	Y11	Z11	X12	Y12	Z12	X13	Y13	Z13	X14	Y14	Z14	X15	Y15	Z15	X16	Y16	Z16	X17	Y17	Z17	X18	Y18	Z18	X19	Y19	Z19	

354	3.530	187.83279	1587.01709	1195.20862										340.41605	1560.31921	1267.71521	38.59475	1559.64258	1231.28284	188.87900	1501.06421	1363.54663				497.84842	1218.76831	1240.87610	-86.89582	1208.17773	1280.30908	491.45007	934.95166	1372.63965	-30.31503	991.49036	1487.90649	345.69983	1079.36658	1371.99963	16.71154	1046.08362	1331.81311	231.79115	1083.32458	1167.05750	378.57108	633.26648	1521.76514	112.63280	564.02051	1284.18408	422.00000	133.87071	1412.92969	250.03586	89.77100	1153.83643	
355	3.540	90.02859	1622.94922	1207.58472										340.23074	1559.67065	1279.13867	39.40696	1559.04688	1238.73486	187.81239	1500.41003	1372.50854				497.56024	1217.67065	1251.42908	-86.61863	1207.43408	1287.38489	490.54999	933.28748	1381.01831	-30.39476	994.24933	1498.44531	345.30701	1078.35608	1382.00818	17.18778	1045.95129	1340.79639	232.89160	1082.98206	1176.93298	377.07709	630.91577	1528.60608	112.20847	563.48169	1287.84436	416.64590	125.78281	1446.33899	249.94286	90.00549	1153.94592	
356	3.550	90.69183	1622.14832	1216.17737										340.13306	1559.22253	1288.40747	40.21966	1557.85938	1246.40747	187.44986	1500.06018	1381.20032				497.35724	1217.69373	1261.28979	-86.40205	1206.96912	1294.40808	489.84354	931.81281	1388.94153	-29.65492	995.52155	1508.62280	345.44110	1076.72266	1391.92981	17.59627	1045.10742	1349.87109	233.74936	1082.04041	1186.56042	373.98721	627.38348	1534.33728	112.56503	563.08966	1291.45532	410.33582	118.75416	1478.71338	249.86955	90.22634	1154.04236	
357	3.560	89.68109	1621.72815	1224.77759										340.40140	1558.37524	1298.72729	39.66338	1557.46875	1254.11279	187.02167	1498.67004	1389.16528				497.44522	1216.27209	1272.23376	-86.54133	1206.17590	1301.88208	488.63177	930.06317	1397.06946	-29.99210	997.56323	1517.89124	345.03204	1075.24768	1402.28955	17.73148	1044.50537	1358.00659	234.49901	1081.79297	1196.13489	372.09442	623.34497	1541.18140	111.83942	562.72064	1295.86182	402.35855	112.76327	1509.90063	249.74640	90.49080	1154.05005	
358	3.570	89.78527	1620.92139	1233.30847										340.03030	1556.89075	1308.18335	39.91449	1556.44604	1262.13928	186.46515	1497.56226	1398.44043				497.55786	1215.80042	1282.49585	-86.58856	1205.35498	1309.21240	487.83191	928.36163	1405.60437	-30.22281	999.26849	1527.53052	344.80347	1073.60474	1412.50085	17.53105	1044.70654	1368.70032	235.31279	1080.90649	1205.54858	370.52737	619.52863	1546.30444	111.51900	561.87732	1299.88965	393.53183	108.35189	1540.52869	249.64464	91.00906	1154.64905	
359	3.580	89.29441	1619.70215	1242.05664										340.23523	1556.11938	1317.54688	40.66619	1555.23853	1270.41907	185.83600	1496.52222	1407.01221				497.69846	1214.34399	1293.44763	-86.60099	1204.17664	1316.77881	487.07648	926.73767	1414.93433	-30.66686	1000.24530	1538.14648	344.57504	1071.47388	1421.95276	17.19697	1043.35449	1376.67920	235.52647	1079.95898	1215.57361	367.88718	615.39484	1551.40515	111.48648	560.99072	1304.28931	384.30246	103.90385	1570.26868	249.70772	91.15760	1154.79944	
360	3.590	88.46915	1618.75354	1250.84241										340.34250	1554.96753	1328.60352	40.89245	1553.80969	1278.67102	185.45473	1495.79358	1416.55359				497.83151	1213.66101	1303.46960	-87.00378	1202.91467	1324.37073	486.65366	925.58472	1424.16626	-31.75184	1000.78473	1546.66541	344.37100	1069.81372	1431.32642	17.69174	1041.57849	1383.92798	236.22177	1077.62720	1225.56226	366.16974	611.66193	1557.21082	111.28470	560.39630	1309.03381	373.22003	100.70010	1597.70850	249.89630	91.75699	1155.43689	
361	3.600	88.78354	1617.52014	1259.69751										339.96210	1553.65820	1337.66528	41.01527	1552.52478	1287.12659	185.18660	1494.38049	1426.32544				497.90884	1212.25281	1314.09705	-86.96848	1201.38513	1332.11670	486.22202	923.51227	1433.52551	-32.76783	1001.84650	1556.89368	344.36603	1067.37866	1441.58276	17.86400	1040.27588	1393.21472	236.63451	1076.53992	1234.27063	364.32938	606.67291	1562.83044	111.02137	559.90698	1314.00732	362.64447	99.25291	1624.06335	250.00252	92.17354	1155.62329	
